<svg width="136" height="29" viewBox="0 0 136 29" fill="none" xmlns="http://www.w3.org/2000/svg">
<g clip-path="url(#clip0_6605_10038)">
<path d="M0 14.5C0 20.7564 5.07411 25.8281 11.3333 25.8281C17.5926 25.8281 22.6667 20.7564 22.6667 14.5C22.6667 8.24365 17.5926 3.17188 11.3333 3.17188C5.07411 3.17188 0 8.24365 0 14.5Z" fill="#2D4164"/>
<path d="M11.3339 6.29688L10.0282 12.1428L6.85736 10.257L8.72256 13.4628L3.12695 14.7828L8.72256 15.9143L6.85736 19.1202L10.0282 17.4229L11.3339 22.7031L12.6395 17.4229L15.8104 19.1202L13.9452 15.9143L19.5408 14.7828L13.9452 13.4628L15.8104 10.257L12.6395 12.1428L11.3339 6.29688Z" fill="white"/>
<path d="M11.3319 6.29688L10.0262 12.1428L6.85541 10.257L8.72061 13.4628L3.125 14.7828L8.72061 15.9143L6.85541 19.1202L10.0262 17.4229L11.3319 22.7031L12.6375 17.4229L15.8084 19.1202L13.9432 15.9143L19.5388 14.7828L13.9432 13.4628L15.8084 10.257L12.6375 12.1428L11.3319 6.29688Z" fill="white"/>
<mask id="mask0_6605_10038" style="mask-type:luminance" maskUnits="userSpaceOnUse" x="30" y="0" width="106" height="29">
<path d="M136 0H30.8262V29H136V0Z" fill="white"/>
</mask>
<g mask="url(#mask0_6605_10038)">
<path d="M46.3713 23.441V18.6959C46.3713 17.9988 46.304 17.5431 46.1695 17.3286C46.0619 17.1141 45.739 16.9399 45.2008 16.8058C44.9049 16.7522 44.6358 16.7254 44.3936 16.7254C44.1783 16.6986 43.9765 16.6718 43.7882 16.6449C43.6267 16.6182 43.4922 16.578 43.3846 16.5243C43.3039 16.4439 43.2635 16.3098 43.2635 16.1222C43.2635 15.7468 43.4922 15.5593 43.9496 15.5593C44.2187 15.5593 44.6896 15.6128 45.3623 15.72C46.0619 15.8273 46.9902 15.8809 48.1473 15.8809C49.4388 15.8809 50.4209 15.8273 51.0937 15.72C51.7663 15.6128 52.1969 15.5593 52.3852 15.5593C52.7889 15.5593 52.9907 15.7335 52.9907 16.082C52.9907 16.2697 52.9368 16.4037 52.8292 16.4841C52.7485 16.5646 52.6274 16.6182 52.4659 16.6449C52.3314 16.6718 52.1566 16.6986 51.9412 16.7254C51.7529 16.7254 51.5377 16.7522 51.2955 16.8058C50.8112 16.913 50.5017 17.0873 50.3672 17.3286C50.2595 17.5431 50.2057 17.9988 50.2057 18.6959V24.8083C50.2057 25.4249 49.9904 26.0012 49.5599 26.5375C49.1563 27.0468 48.5912 27.4891 47.8647 27.8645C47.1382 28.213 46.2906 28.4811 45.3219 28.6688C44.3802 28.8832 43.371 28.9905 42.2948 28.9905C40.6265 28.9905 39.0793 28.6688 37.6532 28.0254C36.254 27.3819 35.0431 26.4972 34.0206 25.3712C33.0251 24.2185 32.2447 22.8512 31.6797 21.2695C31.1146 19.6878 30.832 17.9586 30.832 16.082C30.832 14.0713 31.1415 12.2215 31.7604 10.5326C32.4062 8.81679 33.2807 7.34228 34.3839 6.10908C35.4871 4.87588 36.8056 3.91077 38.3393 3.21372C39.8731 2.51668 41.5414 2.16818 43.3442 2.16818C44.0707 2.16818 44.7569 2.22179 45.4026 2.32903C46.0484 2.40946 46.627 2.5301 47.1382 2.69095C47.6764 2.82499 48.1204 2.98584 48.4701 3.17351C48.8469 3.33436 49.1025 3.49522 49.237 3.65607C49.5599 3.97778 49.7213 5.27802 49.7213 7.55676C49.7213 8.3074 49.5464 8.68274 49.1967 8.68274C48.9006 8.68274 48.6854 8.50847 48.5508 8.15996C48.4432 7.78463 48.2818 7.3289 48.0665 6.79271C47.1247 4.43354 45.4699 3.25393 43.102 3.25393C41.945 3.25393 40.8686 3.56223 39.8731 4.17884C38.9044 4.76863 38.0568 5.62652 37.3303 6.7525C36.6038 7.85167 36.0387 9.19212 35.6351 10.7738C35.2314 12.3287 35.0297 14.0713 35.0297 16.0016C35.0297 17.7978 35.2314 19.4197 35.6351 20.8673C36.0656 22.3151 36.6307 23.5617 37.3303 24.6073C38.0568 25.626 38.8909 26.4169 39.8327 26.9798C40.8014 27.5428 41.8239 27.8243 42.9002 27.8243C43.6806 27.8243 44.2994 27.7171 44.7569 27.5025C45.2143 27.2881 45.5641 26.9932 45.8063 26.6179C46.0484 26.2158 46.1964 25.7466 46.2503 25.2105C46.331 24.6742 46.3713 24.0844 46.3713 23.441ZM53.3447 19.3795C53.3447 17.9318 53.5466 16.6182 53.9501 15.4385C54.3538 14.259 54.9323 13.2537 55.6858 12.4225C56.4392 11.5915 57.3405 10.9481 58.39 10.4923C59.4394 10.0366 60.6099 9.80873 61.9014 9.80873C63.1392 9.80873 64.2694 10.05 65.2918 10.5326C66.3143 10.9883 67.1754 11.6451 67.875 12.503C68.6015 13.334 69.1531 14.3394 69.5298 15.519C69.9333 16.6986 70.135 18.0122 70.135 19.4599C70.135 20.8808 69.9333 22.181 69.5298 23.3606C69.1262 24.5402 68.5476 25.5456 67.7942 26.3766C67.0677 27.2076 66.1664 27.8511 65.09 28.3068C64.0137 28.7626 62.8028 28.9905 61.4574 28.9905C60.2466 28.9905 59.1434 28.7492 58.1478 28.2666C57.1522 27.8108 56.2911 27.1674 55.5646 26.3364C54.865 25.4785 54.3134 24.4598 53.9098 23.2801C53.5331 22.1006 53.3447 20.8004 53.3447 19.3795ZM61.74 10.9347C60.2062 10.9347 59.0223 11.6183 58.1882 12.9856C57.354 14.3529 56.937 16.2965 56.937 18.8165C56.937 21.6582 57.3809 23.8833 58.2688 25.4919C59.1838 27.0736 60.3677 27.8645 61.8207 27.8645C63.3007 27.8645 64.4577 27.1809 65.2918 25.8137C66.1529 24.4196 66.5833 22.4759 66.5833 19.9827C66.5833 17.1409 66.126 14.9292 65.2111 13.3475C64.3231 11.739 63.1661 10.9347 61.74 10.9347ZM76.1023 10.5728V12.2215C76.1023 12.57 76.1428 12.7443 76.2235 12.7443C76.3042 12.7443 76.4121 12.6639 76.5463 12.503L76.9903 11.9802C77.5554 11.2832 78.2012 10.7471 78.9277 10.3717C79.6814 9.99633 80.4614 9.80873 81.2687 9.80873C82.9371 9.80873 84.2287 10.3851 85.1434 11.5379C86.0853 12.6639 86.556 14.3394 86.556 16.5646V25.2105C86.556 26.0415 86.7579 26.5911 87.1615 26.8592C87.3501 26.9664 87.5383 27.0335 87.7265 27.0602C87.942 27.087 88.1302 27.1138 88.2917 27.1407C88.4531 27.1674 88.5742 27.2211 88.6549 27.3015C88.7628 27.3819 88.8164 27.5294 88.8164 27.7439C88.8164 28.1728 88.5742 28.3873 88.0898 28.3873C87.7134 28.3873 87.2558 28.3337 86.7175 28.2265C86.1796 28.146 85.5606 28.1057 84.8608 28.1057C84.1615 28.1057 83.5561 28.146 83.0446 28.2265C82.5603 28.3337 82.1838 28.3873 81.9144 28.3873C81.4841 28.3873 81.2687 28.1594 81.2687 27.7036C81.2687 27.516 81.2958 27.3819 81.3494 27.3015C81.4301 27.2211 81.5244 27.1674 81.6319 27.1407C81.7666 27.1138 81.9013 27.1004 82.0356 27.1004C82.197 27.0736 82.3584 27.0201 82.5199 26.9396C82.8428 26.7787 83.0314 26.5777 83.085 26.3364C83.1389 26.0683 83.1656 25.6929 83.1656 25.2105V17.0873C83.1656 15.4788 82.87 14.2724 82.2777 13.4681C81.6859 12.6371 80.8383 12.2215 79.7349 12.2215C78.7127 12.2215 77.8783 12.57 77.2325 13.2671C76.5867 13.9641 76.2638 15.0364 76.2638 16.4841V25.2105C76.2638 25.6662 76.291 26.0281 76.3445 26.2961C76.4253 26.5375 76.6003 26.7251 76.8693 26.8592C77.1115 26.9932 77.3268 27.0736 77.515 27.1004C77.7037 27.1004 77.8651 27.1138 77.9994 27.1407C78.1608 27.1674 78.2819 27.2211 78.3627 27.3015C78.4434 27.3819 78.4837 27.5428 78.4837 27.7841C78.4837 28.1862 78.2415 28.3873 77.7572 28.3873C77.3807 28.3873 76.9232 28.3337 76.385 28.2265C75.847 28.146 75.2416 28.1057 74.5686 28.1057C73.8693 28.1057 73.2771 28.146 72.7927 28.2265C72.3084 28.3337 71.9184 28.3873 71.6222 28.3873C71.1918 28.3873 70.9764 28.1594 70.9764 27.7036C70.9764 27.516 71.0036 27.3819 71.0572 27.3015C71.1379 27.2211 71.2322 27.1674 71.3397 27.1407C71.4476 27.1138 71.5687 27.1004 71.7029 27.1004C71.8644 27.0736 72.0259 27.0201 72.1873 26.9396C72.4834 26.8055 72.6716 26.6179 72.7524 26.3766C72.8331 26.1353 72.8734 25.7466 72.8734 25.2105V15.72C72.8734 14.9962 72.7795 14.5137 72.5909 14.2724C72.4294 14.0311 72.2412 13.8837 72.0259 13.83C71.8108 13.7764 71.609 13.7497 71.4204 13.7497C71.259 13.7228 71.1782 13.5754 71.1782 13.3073C71.1782 13.0392 71.3533 12.8113 71.7029 12.6236C72.053 12.4091 72.5642 12.1008 73.2367 11.6987C74.0172 11.243 74.5686 10.8006 74.8915 10.3717C75.2144 9.94277 75.497 9.72826 75.7391 9.72826C75.8198 9.72826 75.9006 9.79532 75.9813 9.92936C76.062 10.0634 76.1023 10.2778 76.1023 10.5728ZM104.056 3.81692V24.6073C104.056 25.6795 104.245 26.2158 104.621 26.2158C104.891 26.2158 105.119 26.0951 105.308 25.8538C105.523 25.5857 105.697 25.4517 105.833 25.4517C105.886 25.4517 105.953 25.5187 106.034 25.6528C106.115 25.76 106.155 25.9209 106.155 26.1353C106.155 26.5911 106.061 26.8859 105.872 27.0201C105.685 27.1273 105.442 27.2345 105.146 27.3417C104.151 27.6902 103.356 28.0388 102.764 28.3873C102.2 28.7358 101.81 28.91 101.594 28.91C101.46 28.91 101.338 28.8162 101.231 28.6286C101.151 28.4677 101.083 28.28 101.029 28.0656C100.976 27.8243 100.922 27.6233 100.868 27.4624C100.814 27.2747 100.747 27.1808 100.666 27.1808C100.612 27.1808 100.478 27.2747 100.262 27.4624C100.047 27.65 99.7516 27.8645 99.3744 28.1057C99.0244 28.3202 98.5938 28.5213 98.0824 28.7089C97.5719 28.8966 96.9799 28.9905 96.3071 28.9905C95.2844 28.9905 94.3288 28.7626 93.4412 28.3068C92.5535 27.8779 91.7593 27.2613 91.0603 26.457C90.3873 25.6528 89.849 24.6876 89.4454 23.5617C89.0686 22.4089 88.8804 21.1221 88.8804 19.7012C88.8804 18.2535 89.0958 16.9264 89.5262 15.72C89.9837 14.4869 90.5756 13.4413 91.3023 12.5834C92.0558 11.6987 92.9298 11.0151 93.9253 10.5326C94.9208 10.05 95.9844 9.80873 97.1141 9.80873C97.6526 9.80873 98.164 9.86229 98.6482 9.96959C99.1323 10.05 99.5222 10.1439 99.8187 10.2511L100.343 10.4521H100.423C100.586 10.4521 100.666 10.2511 100.666 9.84888V4.54076C100.666 4.19226 100.572 3.93756 100.384 3.77671C100.195 3.61586 99.9936 3.49522 99.7779 3.41479C99.563 3.30755 99.3608 3.21372 99.1722 3.1333C98.9845 3.05287 98.8902 2.93223 98.8902 2.77138C98.8902 2.47647 99.0652 2.28882 99.4152 2.20839C99.7915 2.10115 100.236 1.9537 100.747 1.76604C101.688 1.41752 102.375 1.09581 102.805 0.80092C103.263 0.479213 103.559 0.318359 103.693 0.318359C103.909 0.318359 104.043 0.385382 104.096 0.519427C104.151 0.653473 104.177 0.841133 104.177 1.08242C104.177 1.45774 104.151 1.87327 104.096 2.32903C104.07 2.78477 104.056 3.28074 104.056 3.81692ZM100.666 17.0069C100.666 16.0686 100.639 15.2375 100.586 14.5137C100.559 13.7631 100.437 13.133 100.222 12.6236C100.034 12.0874 99.738 11.6853 99.3336 11.4172C98.9301 11.1223 98.3653 10.9749 97.639 10.9749C96.9391 10.9749 96.2799 11.176 95.6607 11.5781C95.0695 11.9802 94.531 12.5567 94.0468 13.3073C93.589 14.0311 93.2263 14.9292 92.957 16.0016C92.6877 17.0739 92.5535 18.2669 92.5535 19.5806C92.5535 21.9665 93.064 23.8298 94.0867 25.1702C95.1094 26.4838 96.5084 27.1407 98.2846 27.1407C98.8494 27.1407 99.2937 27.0736 99.6165 26.9396C99.9393 26.7787 100.181 26.5509 100.343 26.256C100.504 25.961 100.598 25.6126 100.626 25.2105C100.653 24.8083 100.666 24.3392 100.666 23.803V17.0069ZM106.589 19.3795C106.589 17.9318 106.791 16.6182 107.194 15.4385C107.598 14.259 108.176 13.2537 108.93 12.4225C109.683 11.5915 110.584 10.9481 111.634 10.4923C112.683 10.0366 113.854 9.80873 115.146 9.80873C116.383 9.80873 117.513 10.05 118.536 10.5326C119.559 10.9883 120.42 11.6451 121.119 12.503C121.846 13.334 122.397 14.3394 122.775 15.519C123.178 16.6986 123.379 18.0122 123.379 19.4599C123.379 20.8808 123.178 22.181 122.775 23.3606C122.37 24.5402 121.792 25.5456 121.038 26.3766C120.312 27.2076 119.411 27.8511 118.335 28.3068C117.258 28.7626 116.047 28.9905 114.702 28.9905C113.491 28.9905 112.388 28.7492 111.392 28.2666C110.397 27.8108 109.535 27.1674 108.809 26.3364C108.109 25.4785 107.558 24.4598 107.155 23.2801C106.777 22.1006 106.589 20.8004 106.589 19.3795ZM114.984 10.9347C113.45 10.9347 112.266 11.6183 111.432 12.9856C110.598 14.3529 110.181 16.2965 110.181 18.8165C110.181 21.6582 110.625 23.8833 111.513 25.4919C112.428 27.0736 113.612 27.8645 115.065 27.8645C116.545 27.8645 117.702 27.1809 118.536 25.8137C119.397 24.4196 119.828 22.4759 119.828 19.9827C119.828 17.1409 119.37 14.9292 118.455 13.3475C117.568 11.739 116.411 10.9347 114.984 10.9347ZM129.266 10.5326V12.1008C129.266 12.3422 129.306 12.4628 129.387 12.4628C129.441 12.4628 129.562 12.369 129.75 12.1813L130.557 11.2966C131.419 10.2778 132.334 9.7685 133.303 9.7685C134.029 9.7685 134.648 10.0366 135.159 10.5728C135.67 11.1089 135.926 11.7792 135.926 12.5834C135.926 13.1732 135.737 13.6558 135.361 14.0311C135.011 14.4064 134.58 14.5941 134.069 14.5941C133.665 14.5941 133.315 14.5002 133.02 14.3126C132.723 14.0981 132.455 13.8703 132.213 13.6289C131.97 13.3877 131.741 13.1732 131.527 12.9856C131.311 12.7711 131.096 12.6639 130.881 12.6639C129.886 12.6639 129.387 13.9239 129.387 16.4439V25.1702C129.387 25.626 129.441 25.9745 129.548 26.2158C129.656 26.4303 129.872 26.6044 130.195 26.7385C130.517 26.8993 130.813 27.0066 131.082 27.0602C131.352 27.087 131.566 27.1273 131.728 27.1808C131.916 27.2076 132.064 27.2613 132.172 27.3417C132.28 27.4222 132.334 27.5696 132.334 27.7841C132.334 27.9449 132.253 28.0923 132.091 28.2265C131.956 28.3337 131.741 28.3873 131.446 28.3873C130.907 28.3873 130.315 28.3337 129.67 28.2265C129.05 28.146 128.391 28.1057 127.692 28.1057C127.046 28.1057 126.441 28.146 125.875 28.2265C125.338 28.3068 124.854 28.3471 124.423 28.3471C123.939 28.3471 123.697 28.1326 123.697 27.7036C123.697 27.516 123.737 27.3953 123.817 27.3417C123.898 27.2613 124.006 27.2076 124.14 27.1808C124.275 27.1273 124.436 27.087 124.624 27.0602C124.813 27.0335 125.015 26.9664 125.23 26.8592C125.607 26.6715 125.822 26.4838 125.875 26.2961C125.956 26.0817 125.997 25.7868 125.997 25.4115V15.1169C125.997 14.6343 125.903 14.3126 125.714 14.1518C125.553 13.9909 125.365 13.8837 125.149 13.83C124.961 13.7764 124.773 13.7362 124.584 13.7094C124.423 13.6558 124.342 13.5083 124.342 13.2671C124.342 12.9722 124.517 12.7577 124.867 12.6236C125.216 12.4628 125.674 12.1947 126.239 11.8193C127.02 11.2832 127.584 10.8006 127.934 10.3717C128.311 9.91594 128.621 9.68802 128.863 9.68802C129.131 9.68802 129.266 9.96959 129.266 10.5326Z" fill="#2D4164"/>
</g>
</g>
<defs>
<clipPath id="clip0_6605_10038">
<rect width="136" height="29" fill="white"/>
</clipPath>
</defs>
</svg>
